<svg width="42" height="42" viewBox="0 0 42 42" fill="none" xmlns="http://www.w3.org/2000/svg">
<path d="M34.2316 0.442932C34.9526 0.757162 35.5606 1.18456 35.7203 1.98661C35.7865 2.31622 35.7682 2.66781 35.7933 3.07543H36.2714C37.2536 3.07543 38.2358 3.07543 39.2181 3.07543C39.9304 3.0757 40.6137 3.34714 41.1191 3.83059C41.6245 4.31403 41.911 4.97028 41.9161 5.65629C41.9207 14.8942 41.9207 24.1328 41.9161 33.3722C41.9159 34.0586 41.6339 34.7171 41.1318 35.2043C40.6296 35.6914 39.9479 35.9676 39.2352 35.9728C36.5303 35.9805 33.8254 35.9728 31.1205 35.9728C30.5821 35.9728 30.2923 35.7278 30.3014 35.296C30.3106 34.8862 30.5935 34.6555 31.1137 34.6555C33.733 34.6555 36.3523 34.6555 38.9717 34.6555C39.9824 34.6555 40.5483 34.1259 40.5494 33.1701C40.5494 25.8915 40.5494 18.6129 40.5494 11.3344V10.9905H2.28854V33.0855C2.28854 34.1424 2.81788 34.6533 3.90965 34.6533C6.51529 34.6533 9.12055 34.6533 11.7254 34.6533C12.2068 34.6533 12.4841 34.8522 12.5343 35.2125C12.5936 35.6432 12.2936 35.9652 11.8019 35.9685C10.6211 35.975 9.43921 35.9685 8.25732 35.9685C6.74916 35.9685 5.24023 35.9685 3.73054 35.9685C2.10601 35.9728 0.919556 34.8434 0.919556 33.2942C0.919556 24.1083 0.919556 14.9231 0.919556 5.73869C0.919556 4.21039 2.11057 3.07982 3.70658 3.07982L6.95222 3.07213C6.97732 3.07213 7.00242 3.05345 7.0663 3.02599C7.0663 2.88316 7.0663 2.72274 7.0663 2.56233C7.0663 1.54493 7.50666 0.914276 8.47636 0.534125C8.52372 0.508891 8.56777 0.478275 8.60756 0.442932L9.6343 0.442932C9.67224 0.476445 9.7144 0.505237 9.75979 0.528631C10.7306 0.909882 11.1676 1.54164 11.1698 2.55464C11.1698 2.71505 11.1698 2.87546 11.1698 3.05565H31.6476C31.6693 2.68539 31.6476 2.32611 31.7183 1.98441C31.8792 1.18346 32.4895 0.756063 33.2048 0.442932H34.2316ZM9.80428 4.05328C9.80428 3.54677 9.80998 3.04027 9.80428 2.53377C9.79629 2.06682 9.50196 1.75039 9.10381 1.76467C8.70567 1.77896 8.44898 2.08 8.43985 2.53047C8.43149 3.54348 8.43149 4.55648 8.43985 5.56949C8.43985 6.04413 8.72278 6.35836 9.12435 6.36056C9.52592 6.36275 9.80085 6.04743 9.80884 5.57388C9.80884 5.06628 9.80428 4.55978 9.80428 4.05328ZM33.0383 4.02801C33.0383 4.53451 33.0383 5.04101 33.0383 5.54751C33.0383 6.05402 33.3269 6.37154 33.7376 6.35946C34.1483 6.34737 34.3993 6.02985 34.4027 5.55301C34.4072 4.55465 34.4072 3.55556 34.4027 2.55574C34.4027 2.0811 34.1198 1.76687 33.7239 1.76467C33.328 1.76248 33.0462 2.07451 33.0394 2.54915C33.0337 3.04137 33.0383 3.53469 33.0383 4.02801Z" fill="url(#paint0_linear_3_22042)"/>
<path d="M34.6307 25.9579C34.5275 26.1322 34.409 26.2968 34.2768 26.4497C32.4553 28.261 30.6268 30.0656 28.7914 31.8635C28.4971 32.1492 28.4208 32.4024 28.4927 32.8114C28.9536 35.404 29.3902 38.0011 29.8024 40.6027C29.8367 40.8167 29.7039 41.1629 29.5358 41.2749C29.42 41.3349 29.2926 41.3684 29.1626 41.3728C29.0325 41.3773 28.9032 41.3527 28.7836 41.3007C26.9297 40.3472 25.0935 39.3579 23.2529 38.3787C22.7407 38.1064 22.2208 37.8476 21.7187 37.5563C21.6301 37.4957 21.5257 37.4633 21.4189 37.4633C21.312 37.4633 21.2077 37.4957 21.1191 37.5563C18.7962 38.8044 16.4634 40.0357 14.1371 41.2783C13.8351 41.4396 13.5133 41.5517 13.2655 41.2727C13.099 41.0824 13.0139 40.8329 13.0288 40.5791C13.4535 37.9372 13.907 35.3009 14.3628 32.6657C14.3927 32.5391 14.3873 32.4065 14.347 32.2828C14.3068 32.1591 14.2333 32.0493 14.1349 31.9655C12.2788 30.1459 10.4371 28.3152 8.58537 26.4957C8.33648 26.2503 8.12189 26.006 8.24357 25.6229C8.35418 25.2598 8.64842 25.1747 8.98247 25.1288C11.1771 24.815 13.3695 24.4789 15.5641 24.1574C15.9885 24.1139 16.4104 24.0488 16.8284 23.9624C17.013 23.896 17.1652 23.7599 17.2531 23.5826C18.4234 21.2129 19.5705 18.8321 20.7464 16.4669C20.8704 16.2294 21.0775 16.0472 21.3271 15.956C21.7209 15.844 21.9399 16.1386 22.1014 16.4815C23.2352 18.822 24.3856 21.1558 25.5116 23.5008C25.6698 23.8291 25.859 23.9557 26.2207 24.0061C28.5934 24.3355 30.9616 24.7008 33.3321 25.0537C33.5766 25.0907 33.8243 25.1164 34.0677 25.1657C34.4371 25.2386 34.5931 25.4974 34.6307 25.9579Z" fill="url(#paint1_linear_3_22042)"/>
<defs>
<linearGradient id="paint0_linear_3_22042" x1="21.4196" y1="35.9768" x2="21.4196" y2="0.442932" gradientUnits="userSpaceOnUse">
<stop stop-color="#FEAA42"/>
<stop offset="0.01" stop-color="#FBA33F"/>
<stop offset="0.03" stop-color="#F59838"/>
<stop offset="0.06" stop-color="#F29135"/>
<stop offset="0.15" stop-color="#F18F34"/>
<stop offset="0.23" stop-color="#F28F3E"/>
<stop offset="0.37" stop-color="#F38E5A"/>
<stop offset="0.55" stop-color="#F68D88"/>
<stop offset="0.62" stop-color="#F78C9B"/>
<stop offset="1" stop-color="#F08672"/>
</linearGradient>
<linearGradient id="paint1_linear_3_22042" x1="21.4196" y1="41.4433" x2="21.4196" y2="15.9318" gradientUnits="userSpaceOnUse">
<stop stop-color="#FEAA42"/>
<stop offset="0.01" stop-color="#FBA33F"/>
<stop offset="0.03" stop-color="#F59838"/>
<stop offset="0.06" stop-color="#F29135"/>
<stop offset="0.15" stop-color="#F18F34"/>
<stop offset="0.23" stop-color="#F28F3E"/>
<stop offset="0.37" stop-color="#F38E5A"/>
<stop offset="0.55" stop-color="#F68D88"/>
<stop offset="0.62" stop-color="#F78C9B"/>
<stop offset="1" stop-color="#F08672"/>
</linearGradient>
</defs>
</svg>
