<svg width="125" height="20" viewBox="0 0 125 20" fill="none" xmlns="http://www.w3.org/2000/svg">
<path d="M0.640906 1.24H5.20091L9.92891 14.68H9.97691L14.6569 1.24H19.2169V19H15.9289V5.68H15.8569L11.3209 19H8.53691L3.97691 5.68H3.92891V19H0.640906V1.24ZM22.2023 1.24H31.7543V4.312H25.4903V8.656H31.4903V11.728H25.4903V15.928H31.7543V19H22.2023V1.24ZM34.671 1.24H44.223V4.312H37.959V8.656H43.959V11.728H37.959V15.928H44.223V19H34.671V1.24ZM49.1078 4.312H45.8198V1.24H55.7078V4.312H52.3958V19H49.1078V4.312ZM60.7219 8.152H61.8019C61.9939 8.152 62.2499 8.144 62.5699 8.128C62.8899 8.112 63.2019 8.048 63.5059 7.936C63.8099 7.808 64.0739 7.616 64.2979 7.36C64.5219 7.088 64.6339 6.712 64.6339 6.232C64.6339 5.704 64.4419 5.256 64.0579 4.888C63.6899 4.504 63.0339 4.312 62.0899 4.312H60.7219V8.152ZM60.7219 15.928H62.3779C62.5379 15.928 62.8019 15.92 63.1699 15.904C63.5379 15.872 63.9059 15.784 64.2739 15.64C64.6419 15.496 64.9699 15.264 65.2579 14.944C65.5459 14.624 65.6899 14.176 65.6899 13.6C65.6899 13.424 65.6579 13.2 65.5939 12.928C65.5299 12.656 65.3779 12.4 65.1379 12.16C64.9139 11.904 64.5859 11.688 64.1539 11.512C63.7379 11.32 63.1699 11.224 62.4499 11.224H60.7219V15.928ZM57.4339 1.24H60.9379C61.4339 1.24 61.9219 1.248 62.4019 1.264C62.8979 1.28 63.3779 1.328 63.8419 1.408C64.3059 1.488 64.7539 1.624 65.1859 1.816C65.6179 2.008 66.0259 2.272 66.4099 2.608C66.8579 3.008 67.2179 3.512 67.4899 4.12C67.7779 4.712 67.9219 5.312 67.9219 5.92C67.9219 6.48 67.8419 6.96 67.6819 7.36C67.5379 7.744 67.3539 8.072 67.1299 8.344C66.9219 8.6 66.7059 8.808 66.4819 8.968C66.2579 9.112 66.0739 9.224 65.9299 9.304C66.2179 9.416 66.5379 9.568 66.8899 9.76C67.2579 9.952 67.5939 10.216 67.8979 10.552C68.2019 10.888 68.4579 11.312 68.6659 11.824C68.8739 12.336 68.9779 12.968 68.9779 13.72C68.9779 14.248 68.9139 14.736 68.7859 15.184C68.6579 15.616 68.4899 16.008 68.2819 16.36C68.0739 16.696 67.8339 17 67.5619 17.272C67.3059 17.528 67.0419 17.752 66.7699 17.944C66.4339 18.184 66.0579 18.376 65.6419 18.52C65.2419 18.648 64.8259 18.752 64.3939 18.832C63.9779 18.896 63.5779 18.944 63.1939 18.976C62.8099 18.992 62.4739 19 62.1859 19H57.4339V1.24ZM73.7558 10.144C73.7558 10.96 73.9078 11.744 74.2118 12.496C74.5158 13.232 74.9398 13.888 75.4838 14.464C76.0278 15.024 76.6598 15.472 77.3798 15.808C78.1158 16.128 78.9078 16.288 79.7558 16.288C80.6038 16.288 81.3878 16.128 82.1078 15.808C82.8438 15.472 83.4838 15.024 84.0278 14.464C84.5718 13.888 84.9958 13.232 85.2998 12.496C85.6038 11.744 85.7558 10.96 85.7558 10.144C85.7558 9.296 85.5958 8.496 85.2758 7.744C84.9718 6.992 84.5478 6.336 84.0038 5.776C83.4598 5.216 82.8198 4.776 82.0838 4.456C81.3638 4.12 80.5878 3.952 79.7558 3.952C78.9238 3.952 78.1398 4.12 77.4038 4.456C76.6838 4.776 76.0518 5.216 75.5078 5.776C74.9638 6.336 74.5318 6.992 74.2118 7.744C73.9078 8.496 73.7558 9.296 73.7558 10.144ZM70.4678 10.168C70.4678 8.856 70.7158 7.632 71.2118 6.496C71.7078 5.36 72.3798 4.376 73.2278 3.544C74.0758 2.712 75.0598 2.064 76.1798 1.6C77.2998 1.12 78.4918 0.879999 79.7558 0.879999C81.0198 0.879999 82.2118 1.12 83.3318 1.6C84.4518 2.064 85.4358 2.712 86.2838 3.544C87.1318 4.376 87.8038 5.36 88.2998 6.496C88.7958 7.632 89.0438 8.856 89.0438 10.168C89.0438 11.448 88.7958 12.648 88.2998 13.768C87.8198 14.872 87.1558 15.84 86.3078 16.672C85.4758 17.504 84.4918 18.16 83.3558 18.64C82.2358 19.12 81.0358 19.36 79.7558 19.36C78.4758 19.36 77.2678 19.12 76.1318 18.64C75.0118 18.16 74.0278 17.504 73.1798 16.672C72.3478 15.84 71.6838 14.872 71.1878 13.768C70.7078 12.648 70.4678 11.448 70.4678 10.168ZM93.912 10.144C93.912 10.96 94.064 11.744 94.368 12.496C94.672 13.232 95.096 13.888 95.64 14.464C96.184 15.024 96.816 15.472 97.536 15.808C98.272 16.128 99.064 16.288 99.912 16.288C100.76 16.288 101.544 16.128 102.264 15.808C103 15.472 103.64 15.024 104.184 14.464C104.728 13.888 105.152 13.232 105.456 12.496C105.76 11.744 105.912 10.96 105.912 10.144C105.912 9.296 105.752 8.496 105.432 7.744C105.128 6.992 104.704 6.336 104.16 5.776C103.616 5.216 102.976 4.776 102.24 4.456C101.52 4.12 100.744 3.952 99.912 3.952C99.08 3.952 98.296 4.12 97.56 4.456C96.84 4.776 96.208 5.216 95.664 5.776C95.12 6.336 94.688 6.992 94.368 7.744C94.064 8.496 93.912 9.296 93.912 10.144ZM90.624 10.168C90.624 8.856 90.872 7.632 91.368 6.496C91.864 5.36 92.536 4.376 93.384 3.544C94.232 2.712 95.216 2.064 96.336 1.6C97.456 1.12 98.648 0.879999 99.912 0.879999C101.176 0.879999 102.368 1.12 103.488 1.6C104.608 2.064 105.592 2.712 106.44 3.544C107.288 4.376 107.96 5.36 108.456 6.496C108.952 7.632 109.2 8.856 109.2 10.168C109.2 11.448 108.952 12.648 108.456 13.768C107.976 14.872 107.312 15.84 106.464 16.672C105.632 17.504 104.648 18.16 103.512 18.64C102.392 19.12 101.192 19.36 99.912 19.36C98.632 19.36 97.424 19.12 96.288 18.64C95.168 18.16 94.184 17.504 93.336 16.672C92.504 15.84 91.84 14.872 91.344 13.768C90.864 12.648 90.624 11.448 90.624 10.168ZM112.124 1.24H115.412V8.92H115.46L121.004 1.24H124.868L118.172 9.976L124.868 19H121.004L115.46 11.2H115.412V19H112.124V1.24Z" fill="white"/>
</svg>
