<?xml version="1.0" encoding="utf-8"?><svg xmlns="http://www.w3.org/2000/svg" width="281" height="50" preserveAspectRatio="xMidYMid" xmlns:xlink="http://www.w3.org/1999/xlink" style="margin-right:-2px;display:block;background-repeat-y:initial;background-repeat-x:initial;animation-play-state:paused" ><style type="text/css" style="animation-play-state:paused" >text {
    text-anchor: middle; font-size: 54px; opacity: 0;
  }</style>


<g style="transform-origin:140.5px 25px;transform:matrix(0.675, 0, 0, 0.675, 0, 0);animation-play-state:paused" ><g transform="translate(140.5,25)" style="transform:matrix(1, 0, 0, 1, 140.5, 25);animation-play-state:paused" ><g transform="translate(0,0)" style="transform:matrix(1, 0, 0, 1, 0, 0);animation-play-state:paused" ><g class="path" style="transform-origin:-133.8px 3.3928px;animation-timing-function:linear;animation-play-state:paused;animation-name:static-ed80747d-f2ef-4f45-befa-f0dbb735fd57;animation-iteration-count:infinite;animation-fill-mode:forwards;animation-duration:1s;animation-delay:-0.5775s" ><path d="M102.24 6.56L103.28 7.92L103.28 7.92Q100.24 10.96 95.40 10.96L95.40 10.96L95.40 10.96Q90.56 10.96 87.68 7.80L87.68 7.80L87.68 7.80Q84.80 4.64 84.80-0.52L84.80-0.52L84.80-0.52Q84.80-5.68 86.64-12.40L86.64-12.40L90.24-24.24L90.24-24.24Q83.52-15.76 77.92-8L77.92-8L77.92-8Q66.88 7.28 62.96 12.48L62.96 12.48L61.52 12.08L58.40-26.64L52-14.96L52-14.96Q42.88 2.24 36.76 7.72L36.76 7.72L36.76 7.72Q30.64 13.20 20.48 13.20L20.48 13.20L20.48 13.20Q11.84 13.20 6.16 7.04L6.16 7.04L6.16 7.04Q1.68 2 1.68-5.04L1.68-5.04L1.68-5.04Q1.68-6.32 1.84-7.68L1.84-7.68L3.44-7.52L3.44-7.52Q3.28-6.24 3.28-5.04L3.28-5.04L3.28-5.04Q3.28 1.44 7.36 5.92L7.36 5.92L7.36 5.92Q12.56 11.60 20.48 11.60L20.48 11.60L20.48 11.60Q30 11.60 35.84 6.28L35.84 6.28L35.84 6.28Q41.68 0.96 50.56-15.68L50.56-15.68L64.96-41.84L64.96-41.84Q56.48-42 48.52-44.52L48.52-44.52L48.52-44.52Q40.56-47.04 34.28-47.04L34.28-47.04L34.28-47.04Q28-47.04 23.76-42.64L23.76-42.64L23.76-42.64Q19.52-38.24 19.52-31.28L19.52-31.28L17.92-31.28L17.92-31.28Q17.92-38.96 22.60-43.80L22.60-43.80L22.60-43.80Q27.28-48.64 34.72-48.64L34.72-48.64L34.72-48.64Q40.72-48.64 49-46.04L49-46.04L49-46.04Q57.28-43.44 66.88-43.44L66.88-43.44L70.24-0.24L71.84-2.48L71.84-2.48Q88.72-25.68 97.92-35.64L97.92-35.64L97.92-35.64Q107.12-45.60 112.80-45.60L112.80-45.60L112.80-44L112.80-44Q110.32-44 106.48-41.28L106.48-41.28L106.48-41.28Q105.92-39.52 102.72-29.08L102.72-29.08L102.72-29.08Q99.52-18.64 97-10.84L97-10.84L97-10.84Q94.48-3.04 94.48 1.92L94.48 1.92L94.48 1.92Q94.48 6.88 96.24 9.28L96.24 9.28L96.24 9.28Q97.92 9.28 99.40 8.60L99.40 8.60L99.40 8.60Q100.88 7.92 101.60 7.20L101.60 7.20L102.24 6.56" fill="#4658ac" stroke="none" stroke-width="none" transform="translate(-191.04000854492188,21.112799072265624)" style="transform:matrix(1, 0, 0, 1, -191.04, 21.1128);fill:rgb(70, 88, 172);animation-play-state:paused" ></path></g>
<g class="path" style="transform-origin:-65.68px 5.9128px;animation-timing-function:linear;animation-play-state:paused;animation-name:static-ed80747d-f2ef-4f45-befa-f0dbb735fd57;animation-iteration-count:infinite;animation-fill-mode:forwards;animation-duration:1s;animation-delay:-0.495s" ><path d="M128.88-31.12L128.88-31.12L128.88-31.12Q139.04-31.12 139.04-23.04L139.04-23.04L139.04-23.04Q139.04-18 134.28-15.40L134.28-15.40L134.28-15.40Q129.52-12.80 120.72-12.72L120.72-12.72L120.72-12.72Q120.56-9.84 120.56-8.16L120.56-8.16L120.56-8.16Q120.56-4.56 122.20-2.84L122.20-2.84L122.20-2.84Q123.84-1.12 126.32-1.12L126.32-1.12L126.32-1.12Q128.80-1.12 130.84-2.08L130.84-2.08L130.84-2.08Q132.88-3.04 134.08-4.36L134.08-4.36L134.08-4.36Q135.28-5.68 136.16-7.12L136.16-7.12L136.16-7.12Q137.76-9.76 137.76-10.48L137.76-10.48L139.20-9.84L139.20-9.84Q138.96-8.56 137.76-6.44L137.76-6.44L137.76-6.44Q136.56-4.32 135.12-2.96L135.12-2.96L135.12-2.96Q133.68-1.60 130.88-0.44L130.88-0.44L130.88-0.44Q128.08 0.72 124.64 0.72L124.64 0.72L124.64 0.72Q118.16 0.72 114.84-2.36L114.84-2.36L114.84-2.36Q111.52-5.44 111.52-10.80L111.52-10.80L111.52-10.80Q111.52-20.32 116.24-25.72L116.24-25.72L116.24-25.72Q120.96-31.12 128.88-31.12zM137.04-23.04L137.04-23.04Q137.04-25.68 135.48-27.40L135.48-27.40L135.48-27.40Q133.92-29.12 130.84-29.12L130.84-29.12L130.84-29.12Q127.76-29.12 124.84-25.44L124.84-25.44L124.84-25.44Q121.92-21.76 120.96-14.56L120.96-14.56L120.96-14.56Q137.04-14.64 137.04-23.04L137.04-23.04" fill="#4658ac" stroke="none" stroke-width="none" transform="translate(-191.04000854492188,21.112799072265624)" style="transform:matrix(1, 0, 0, 1, -191.04, 21.1128);fill:rgb(231, 0, 138);animation-play-state:paused" ></path></g>
<g class="path" style="transform-origin:-33.92px 5.9128px;animation-timing-function:linear;animation-play-state:paused;animation-name:static-ed80747d-f2ef-4f45-befa-f0dbb735fd57;animation-iteration-count:infinite;animation-fill-mode:forwards;animation-duration:1s;animation-delay:-0.4125s" ><path d="M160.64-31.12L160.64-31.12L160.64-31.12Q170.80-31.12 170.80-23.04L170.80-23.04L170.80-23.04Q170.80-18 166.04-15.40L166.04-15.40L166.04-15.40Q161.28-12.80 152.48-12.72L152.48-12.72L152.48-12.72Q152.32-9.84 152.32-8.16L152.32-8.16L152.32-8.16Q152.32-4.56 153.96-2.84L153.96-2.84L153.96-2.84Q155.60-1.12 158.08-1.12L158.08-1.12L158.08-1.12Q160.56-1.12 162.60-2.08L162.60-2.08L162.60-2.08Q164.64-3.04 165.84-4.36L165.84-4.36L165.84-4.36Q167.04-5.68 167.92-7.12L167.92-7.12L167.92-7.12Q169.52-9.76 169.52-10.48L169.52-10.48L170.96-9.84L170.96-9.84Q170.72-8.56 169.52-6.44L169.52-6.44L169.52-6.44Q168.32-4.32 166.88-2.96L166.88-2.96L166.88-2.96Q165.44-1.60 162.64-0.44L162.64-0.44L162.64-0.44Q159.84 0.72 156.40 0.72L156.40 0.72L156.40 0.72Q149.92 0.72 146.60-2.36L146.60-2.36L146.60-2.36Q143.28-5.44 143.28-10.80L143.28-10.80L143.28-10.80Q143.28-20.32 148-25.72L148-25.72L148-25.72Q152.72-31.12 160.64-31.12zM168.80-23.04L168.80-23.04Q168.80-25.68 167.24-27.40L167.24-27.40L167.24-27.40Q165.68-29.12 162.60-29.12L162.60-29.12L162.60-29.12Q159.52-29.12 156.60-25.44L156.60-25.44L156.60-25.44Q153.68-21.76 152.72-14.56L152.72-14.56L152.72-14.56Q168.80-14.64 168.80-23.04L168.80-23.04" fill="#4658ac" stroke="none" stroke-width="none" transform="translate(-191.04000854492188,21.112799072265624)" style="transform:matrix(1, 0, 0, 1, -191.04, 21.1128);fill:rgb(255, 0, 58);animation-play-state:paused" ></path></g>
<g class="path" style="transform-origin:-3.36001px -0.00720024px;animation-timing-function:linear;animation-play-state:paused;animation-name:static-ed80747d-f2ef-4f45-befa-f0dbb735fd57;animation-iteration-count:infinite;animation-fill-mode:forwards;animation-duration:1s;animation-delay:-0.33s" ><path d="M176.00-30.40L180.08-30.40L182.24-42.24L182.24-42.24Q188.16-42.24 191.04-42.72L191.04-42.72L192.08-42.96L192.08-42.96Q190.96-37.36 189.60-30.40L189.60-30.40L199.52-30.40L199.36-28.96L189.36-28.96L189.36-28.96Q185.36-8.32 185.36-4.08L185.36-4.08L185.36-4.08Q185.36-1.52 188.08-1.52L188.08-1.52L188.08-1.52Q190.80-1.52 193.04-4.96L193.04-4.96L193.04-4.96Q195.28-8.40 196.24-12.40L196.24-12.40L197.68-11.92L197.68-11.92Q194.72 0.72 185.44 0.72L185.44 0.72L185.44 0.72Q181.60 0.72 179.04-1.40L179.04-1.40L179.04-1.40Q176.48-3.52 176.48-7.32L176.48-7.32L176.48-7.32Q176.48-11.12 179.76-28.96L179.76-28.96L175.84-28.96L176.00-30.40" fill="#4658ac" stroke="none" stroke-width="none" transform="translate(-191.04000854492188,21.112799072265624)" style="transform:matrix(1, 0, 0, 1, -191.04, 21.1128);fill:rgb(255, 109, 0);animation-play-state:paused" ></path></g>
<g class="path" style="transform-origin:46.8px 2.8728px;animation-timing-function:linear;animation-play-state:paused;animation-name:static-ed80747d-f2ef-4f45-befa-f0dbb735fd57;animation-iteration-count:infinite;animation-fill-mode:forwards;animation-duration:1s;animation-delay:-0.2475s" ><path d="M202.72-24.80L202.72-24.80L202.72-24.80Q202.72-36.24 214.68-42.48L214.68-42.48L214.68-42.48Q226.64-48.72 248.48-48.72L248.48-48.72L248.48-48.72Q260.88-48.72 266.64-44.96L266.64-44.96L266.64-44.96Q272.40-41.20 272.40-34.72L272.40-34.72L272.40-34.72Q272.40-29.28 268.68-24.96L268.68-24.96L268.68-24.96Q264.96-20.64 258.24-18.56L258.24-18.56L258.24-18.56Q272.96-16.88 272.96-8.24L272.96-8.24L272.96-8.24Q272.96-3.76 269.80-0.76L269.80-0.76L269.80-0.76Q266.64 2.24 261.44 3.52L261.44 3.52L261.44 3.52Q252.64 5.68 243.36 5.68L243.36 5.68L243.36 4.08L243.36 4.08Q245.20 4.24 246.88 4.24L246.88 4.24L246.88 4.24Q254.88 4.24 258.96 1.44L258.96 1.44L258.96 1.44Q263.92-2 263.92-7.60L263.92-7.60L263.92-7.60Q263.92-10.80 261.96-13.32L261.96-13.32L261.96-13.32Q260-15.84 258.08-16.80L258.08-16.80L256.08-17.76L256.08-17.76Q253.52-17.20 250.32-17.20L250.32-17.20L250.32-18.80L250.32-18.80Q258-18.80 264.32-23.20L264.32-23.20L264.32-23.20Q270.64-27.60 270.64-34.72L270.64-34.72L270.64-34.72Q270.64-40.64 265.08-43.88L265.08-43.88L265.08-43.88Q259.52-47.12 249.20-47.20L249.20-47.20L249.20-47.20Q244.80-17.44 242.48-6.24L242.48-6.24L242.48-6.24Q240.88 2.40 234.48 7.32L234.48 7.32L234.48 7.32Q228.08 12.24 220.80 12.24L220.80 12.24L220.80 10.72L220.80 10.72Q223.92 10.48 225.40 10.04L225.40 10.04L225.40 10.04Q226.88 9.60 227.92 8.20L227.92 8.20L227.92 8.20Q228.96 6.80 229.44 4.88L229.44 4.88L229.44 4.88Q230.32 0.96 230.80-2.56L230.80-2.56L238.48-46.80L238.48-46.80Q222.08-45.44 213.16-39.72L213.16-39.72L213.16-39.72Q204.24-34 204.24-24.80L204.24-24.80L204.24-24.80Q204.24-20.64 207.12-17.76L207.12-17.76L207.12-17.76Q209.12-15.84 212.40-14.84L212.40-14.84L212.40-14.84Q215.68-13.84 217.80-13.72L217.80-13.72L217.80-13.72Q219.92-13.60 220.08-13.76L220.08-13.76L220.08-12.08L220.08-12.08Q210.64-12.08 206.08-16.56L206.08-16.56L206.08-16.56Q202.72-19.68 202.72-24.80" fill="#4658ac" stroke="none" stroke-width="none" transform="translate(-191.04000854492188,21.112799072265624)" style="transform:matrix(1, 0, 0, 1, -191.04, 21.1128);fill:rgb(255, 197, 63);animation-play-state:paused" ></path></g>
<g class="path" style="transform-origin:103.92px 5.9128px;animation-timing-function:linear;animation-play-state:paused;animation-name:static-ed80747d-f2ef-4f45-befa-f0dbb735fd57;animation-iteration-count:infinite;animation-fill-mode:forwards;animation-duration:1s;animation-delay:-0.165s" ><path d="M291.84 0.72L291.84 0.72Q285.68 0.72 282.48-2.36L282.48-2.36L282.48-2.36Q279.28-5.44 279.28-10.12L279.28-10.12L279.28-10.12Q279.28-14.80 280.12-18.12L280.12-18.12L280.12-18.12Q280.96-21.44 282.88-24.52L282.88-24.52L282.88-24.52Q284.80-27.60 288.68-29.36L288.68-29.36L288.68-29.36Q292.56-31.12 298.36-31.12L298.36-31.12L298.36-31.12Q304.16-31.12 307.40-28.04L307.40-28.04L307.40-28.04Q310.64-24.96 310.64-19.60L310.64-19.60L310.64-19.60Q310.64-10.48 305.80-4.88L305.80-4.88L305.80-4.88Q300.96 0.72 291.84 0.72L291.84 0.72zM288.32-7.52L288.32-7.52L288.32-7.52Q288.32-1.12 292.04-1.12L292.04-1.12L292.04-1.12Q295.76-1.12 298.68-7.56L298.68-7.56L298.68-7.56Q301.60-14 301.60-22.88L301.60-22.88L301.60-22.88Q301.60-29.60 297.96-29.60L297.96-29.60L297.96-29.60Q294.32-29.60 291.32-23.48L291.32-23.48L291.32-23.48Q288.32-17.36 288.32-7.52" fill="#4658ac" stroke="none" stroke-width="none" transform="translate(-191.04000854492188,21.112799072265624)" style="transform:matrix(1, 0, 0, 1, -191.04, 21.1128);fill:rgb(70, 88, 172);animation-play-state:paused" ></path></g>
<g class="path" style="transform-origin:139.2px 5.9128px;animation-timing-function:linear;animation-play-state:paused;animation-name:static-ed80747d-f2ef-4f45-befa-f0dbb735fd57;animation-iteration-count:infinite;animation-fill-mode:forwards;animation-duration:1s;animation-delay:-0.0825s" ><path d="M327.12 0.72L327.12 0.72Q320.96 0.72 317.76-2.36L317.76-2.36L317.76-2.36Q314.56-5.44 314.56-10.12L314.56-10.12L314.56-10.12Q314.56-14.80 315.40-18.12L315.40-18.12L315.40-18.12Q316.24-21.44 318.16-24.52L318.16-24.52L318.16-24.52Q320.08-27.60 323.96-29.36L323.96-29.36L323.96-29.36Q327.84-31.12 333.64-31.12L333.64-31.12L333.64-31.12Q339.44-31.12 342.68-28.04L342.68-28.04L342.68-28.04Q345.92-24.96 345.92-19.60L345.92-19.60L345.92-19.60Q345.92-10.48 341.08-4.88L341.08-4.88L341.08-4.88Q336.24 0.72 327.12 0.72L327.12 0.72zM323.60-7.52L323.60-7.52L323.60-7.52Q323.60-1.12 327.32-1.12L327.32-1.12L327.32-1.12Q331.04-1.12 333.96-7.56L333.96-7.56L333.96-7.56Q336.88-14 336.88-22.88L336.88-22.88L336.88-22.88Q336.88-29.60 333.24-29.60L333.24-29.60L333.24-29.60Q329.60-29.60 326.60-23.48L326.60-23.48L326.60-23.48Q323.60-17.36 323.60-7.52" fill="#4658ac" stroke="none" stroke-width="none" transform="translate(-191.04000854492188,21.112799072265624)" style="transform:matrix(1, 0, 0, 1, -191.04, 21.1128);fill:rgb(231, 0, 138);animation-play-state:paused" ></path></g>
<g class="path" style="transform-origin:175.32px -4.4472px;animation-timing-function:linear;animation-play-state:paused;animation-name:static-ed80747d-f2ef-4f45-befa-f0dbb735fd57;animation-iteration-count:infinite;animation-fill-mode:forwards;animation-duration:1s" ><path d="M361.36-15.44L361.36-15.44L358.48 0L348.96 0L358.00-50.24L358.00-50.24Q355.60-50 354.00-48L354.00-48L352.80-48.96L352.80-48.96Q355.20-51.84 358.84-51.84L358.84-51.84L358.84-51.84Q362.48-51.84 364.48-50L364.48-50L364.48-50Q366.48-48.16 366.48-44.80L366.48-44.80L366.48-44.80Q366.48-44.16 366.32-42.72L366.32-42.72L366.32-42.72Q364.48-32.56 362.32-20.80L362.32-20.80L362.32-20.80Q364.32-25.68 368.08-28.40L368.08-28.40L368.08-28.40Q371.84-31.12 376.08-31.12L376.08-31.12L376.08-31.12Q380.32-31.12 382.04-29.44L382.04-29.44L382.04-29.44Q383.76-27.76 383.76-25.24L383.76-25.24L383.76-25.24Q383.76-22.72 382.24-21.12L382.24-21.12L382.24-21.12Q380.72-19.52 378.28-19.52L378.28-19.52L378.28-19.52Q375.84-19.52 374.52-20.92L374.52-20.92L374.52-20.92Q373.20-22.32 373.20-25.08L373.20-25.08L373.20-25.08Q373.20-27.84 375.12-29.28L375.12-29.28L375.12-29.28Q367.44-28.40 362.88-17.92L362.88-17.92L362.88-17.92Q364.00-18.08 364.80-18.08L364.80-18.08L364.80-18.08Q369.04-18.08 371.48-16.40L371.48-16.40L371.48-16.40Q373.92-14.72 374.64-12.28L374.64-12.28L374.64-12.28Q375.36-9.84 375.68-7.40L375.68-7.40L375.68-7.40Q376.00-4.96 376.72-3.28L376.72-3.28L376.72-3.28Q377.44-1.60 379.28-1.60L379.28-1.60L379.28-1.60Q381.12-1.60 382.16-3.12L382.16-3.12L383.36-2.16L383.36-2.16Q382.80-1.04 380.88-0.16L380.88-0.16L380.88-0.16Q378.96 0.72 375.96 0.72L375.96 0.72L375.96 0.72Q372.96 0.72 370.68-0.80L370.68-0.80L370.68-0.80Q368.40-2.32 367.52-4.60L367.52-4.60L367.52-4.60Q366.64-6.88 366.08-9.12L366.08-9.12L366.08-9.12Q364.56-14.88 361.36-15.44" fill="#4658ac" stroke="none" stroke-width="none" transform="translate(-191.04000854492188,21.112799072265624)" style="transform:matrix(1, 0, 0, 1, -191.04, 21.1128);fill:rgb(255, 0, 58);animation-play-state:paused" ></path></g></g></g></g></svg>