<?xml version="1.0" encoding="utf-8"?><svg xmlns="http://www.w3.org/2000/svg" width="281" height="50" preserveAspectRatio="xMidYMid" xmlns:xlink="http://www.w3.org/1999/xlink" style="margin-right:-2px;display:block;background-repeat-y:initial;background-repeat-x:initial;animation-play-state:paused" ><style type="text/css" style="animation-play-state:paused" >text {
    text-anchor: middle; font-size: 54px; opacity: 0;
  }</style>


<g style="transform-origin:140.5px 25px;transform:matrix(1, 0, 0, 1, 0, 0);animation-play-state:paused" ><g transform="translate(140.5,25)" style="transform:matrix(1, 0, 0, 1, 140.5, 25);animation-play-state:paused" ><g transform="translate(0,0)" style="transform:matrix(1, 0, 0, 1, 0, 0);animation-play-state:paused" ><g class="path" style="transform-origin:-72.55px -4.00875px;animation-timing-function:linear;animation-play-state:paused;animation-name:static-ed80747d-f2ef-4f45-befa-f0dbb735fd57;animation-iteration-count:infinite;animation-fill-mode:forwards;animation-duration:1s;animation-delay:-0.5775s" ><path d="M2.92-21.01L2.92-21.01L2.65-31.21L2.65-31.21Q2.65-33.64 2.11-35.05L2.11-35.05L2.11-35.05Q1.57-36.45 1.57-36.56L1.57-36.56L1.57-36.56Q1.57-37.75 5.21-38.39L5.21-38.39L5.21-38.39Q8.86-39.04 10.77-39.04L10.77-39.04L10.77-39.04Q12.69-39.04 12.85-38.12L12.85-38.12L12.85-38.12Q16.25-22.95 18.58-17.06L18.58-17.06L18.58-17.06Q18.85-16.42 19.14-16.42L19.14-16.42L19.14-16.42Q19.44-16.42 19.66-16.90L19.66-16.90L19.66-16.90Q23.27-27.11 26.03-37.10L26.03-37.10L26.03-37.10Q26.24-37.75 27.11-38.10L27.11-38.10L27.11-38.10Q27.97-38.45 30.11-38.77L30.11-38.77L30.11-38.77Q32.24-39.10 34.34-39.10L34.34-39.10L34.34-39.10Q36.45-39.10 36.45-38.23L36.45-38.23L36.45-38.23Q36.45-38.18 36.29-37.40L36.29-37.40L36.29-37.40Q36.13-36.61 35.96-35.48L35.96-35.48L35.96-35.48Q35.80-34.34 35.59-32.72L35.59-32.72L35.59-32.72Q35.10-29.00 34.96-24.16L34.96-24.16L34.96-24.16Q34.83-19.33 34.83-14.47L34.83-14.47L34.94-8.80L34.94-8.80Q34.94-4.91 35.45-3.27L35.45-3.27L35.45-3.27Q35.96-1.62 35.96-1.38L35.96-1.38L35.96-1.38Q35.96-1.13 35.59-0.81L35.59-0.81L35.59-0.81Q33.91 0.54 30.51 0.54L30.51 0.54L30.51 0.54Q28.35 0.54 28.08-0.92L28.08-0.92L28.08-0.92Q27.92-1.67 27.92-3.32L27.92-3.32L27.92-3.32Q27.92-4.97 28.24-13.45L28.24-13.45L28.24-13.45Q28.57-21.92 28.57-25.79L28.57-25.79L28.57-25.79Q28.57-29.65 28.13-29.65L28.13-29.65L28.13-29.65Q28.08-29.65 28.08-29.62L28.08-29.62L28.08-29.62Q28.08-29.59 27.92-29.54L27.92-29.54L27.92-29.54Q27.76-29.48 27.08-27.86L27.08-27.86L27.08-27.86Q26.41-26.24 24.41-19.87L24.41-19.87L24.41-19.87Q22.41-13.50 20.79-7.96L20.79-7.96L20.79-7.96Q19.17-2.43 19.01-2.00L19.01-2.00L19.01-2.00Q18.41-0.54 16.74-0.54L16.74-0.54L16.74-0.54Q15.93-0.54 15.44-1.13L15.44-1.13L15.44-1.13Q13.72-9.13 9.29-23.98L9.29-23.98L7.78-28.89L7.78-28.89Q7.67-29.16 7.56-29.16L7.56-29.16L7.56-29.16Q7.29-29.16 7.18-28.78L7.18-28.78L7.18-28.78Q6.97-25.27 6.97-14.98L6.97-14.98L6.97-14.98Q6.97-4.70 7.72-2.00L7.72-2.00L7.72-2.00Q7.78-1.89 7.78-1.67L7.78-1.67L7.78-1.67Q7.78-0.54 5.99-0.03L5.99-0.03L5.99-0.03Q4.21 0.49 2.78 0.49L2.78 0.49L2.78 0.49Q1.35 0.49 1.35-0.16L1.35-0.16L1.35-0.16Q1.35-0.22 1.62-1.03L1.62-1.03L1.62-1.03Q2.43-3.78 2.67-9.02L2.67-9.02L2.67-9.02Q2.92-14.26 2.92-21.01" fill="#a22e29" stroke="none" stroke-width="none" transform="translate(-91.45001220703125,15.27125144958496)" style="transform:matrix(1, 0, 0, 1, -91.45, 15.2713);fill:rgb(162, 46, 41);animation-play-state:paused" ></path></g>
<g class="path" style="transform-origin:-43.85px 3.52625px;animation-timing-function:linear;animation-play-state:paused;animation-name:static-ed80747d-f2ef-4f45-befa-f0dbb735fd57;animation-iteration-count:infinite;animation-fill-mode:forwards;animation-duration:1s;animation-delay:-0.495s" ><path d="M44.28-13.72L44.28-13.72L44.33-12.37L44.33-12.37Q44.33-12.04 44.77-12.04L44.77-12.04L44.77-12.04Q46.49-12.20 47.79-12.93L47.79-12.93L47.79-12.93Q49.09-13.66 49.73-14.58L49.73-14.58L49.73-14.58Q51.03-16.58 51.14-18.04L51.14-18.04L51.19-18.68L51.19-18.68Q51.19-21.60 48.87-21.60L48.87-21.60L48.87-21.60Q47.14-21.60 46.06-20.09L46.06-20.09L46.06-20.09Q44.28-17.71 44.28-13.72zM56.05-6.53L56.05-6.53L56.05-6.53Q56.05-4.48 55.22-2.94L55.22-2.94L55.22-2.94Q54.38-1.40 53.33-0.68L53.33-0.68L53.33-0.68Q52.27 0.05 50.87 0.49L50.87 0.49L50.87 0.49Q49.09 1.03 47.47 1.03L47.47 1.03L47.47 1.03Q42.93 1.03 40.77-2.38L40.77-2.38L40.77-2.38Q38.61-5.78 38.61-11.04L38.61-11.04L38.61-11.04Q38.61-16.31 41.28-20.41L41.28-20.41L41.28-20.41Q43.96-24.52 49.30-24.52L49.30-24.52L49.30-24.52Q54.16-24.52 55.89-21.11L55.89-21.11L55.89-21.11Q56.59-19.82 56.59-18.66L56.59-18.66L56.59-18.66Q56.59-17.50 56.48-16.82L56.48-16.82L56.48-16.82Q56.38-16.15 55.73-14.80L55.73-14.80L55.73-14.80Q55.08-13.45 54-12.37L54-12.37L54-12.37Q52.92-11.29 50.60-10.31L50.60-10.31L50.60-10.31Q48.28-9.34 45.14-9.02L45.14-9.02L45.14-9.02Q44.71-9.02 44.71-8.64L44.71-8.64L44.71-8.64Q44.71-8.15 45.06-7.21L45.06-7.21L45.06-7.21Q45.41-6.26 45.85-5.62L45.85-5.62L45.85-5.62Q47.03-4.10 49.36-4.10L49.36-4.10L49.36-4.10Q51.68-4.10 53.30-5.62L53.30-5.62L53.30-5.62Q54.16-6.43 54.70-7.61L54.70-7.61L54.70-7.61Q54.92-8.05 55.27-8.05L55.27-8.05L55.27-8.05Q55.62-8.05 55.84-7.45L55.84-7.45L55.84-7.45Q56.05-6.86 56.05-6.53" fill="#a22e29" stroke="none" stroke-width="none" transform="translate(-91.45001220703125,15.27125144958496)" style="transform:matrix(1, 0, 0, 1, -91.45, 15.2713);fill:rgb(242, 74, 60);animation-play-state:paused" ></path></g>
<g class="path" style="transform-origin:-23.98px 3.52625px;animation-timing-function:linear;animation-play-state:paused;animation-name:static-ed80747d-f2ef-4f45-befa-f0dbb735fd57;animation-iteration-count:infinite;animation-fill-mode:forwards;animation-duration:1s;animation-delay:-0.4125s" ><path d="M64.15-13.72L64.15-13.72L64.21-12.37L64.21-12.37Q64.21-12.04 64.64-12.04L64.64-12.04L64.64-12.04Q66.37-12.20 67.66-12.93L67.66-12.93L67.66-12.93Q68.96-13.66 69.61-14.58L69.61-14.58L69.61-14.58Q70.90-16.58 71.01-18.04L71.01-18.04L71.06-18.68L71.06-18.68Q71.06-21.60 68.74-21.60L68.74-21.60L68.74-21.60Q67.01-21.60 65.93-20.09L65.93-20.09L65.93-20.09Q64.15-17.71 64.15-13.72zM75.92-6.53L75.92-6.53L75.92-6.53Q75.92-4.48 75.09-2.94L75.09-2.94L75.09-2.94Q74.25-1.40 73.20-0.68L73.20-0.68L73.20-0.68Q72.14 0.05 70.74 0.49L70.74 0.49L70.74 0.49Q68.96 1.03 67.34 1.03L67.34 1.03L67.34 1.03Q62.80 1.03 60.64-2.38L60.64-2.38L60.64-2.38Q58.48-5.78 58.48-11.04L58.48-11.04L58.48-11.04Q58.48-16.31 61.16-20.41L61.16-20.41L61.16-20.41Q63.83-24.52 69.17-24.52L69.17-24.52L69.17-24.52Q74.03-24.52 75.76-21.11L75.76-21.11L75.76-21.11Q76.46-19.82 76.46-18.66L76.46-18.66L76.46-18.66Q76.46-17.50 76.36-16.82L76.36-16.82L76.36-16.82Q76.25-16.15 75.60-14.80L75.60-14.80L75.60-14.80Q74.95-13.45 73.87-12.37L73.87-12.37L73.87-12.37Q72.79-11.29 70.47-10.31L70.47-10.31L70.47-10.31Q68.15-9.34 65.02-9.02L65.02-9.02L65.02-9.02Q64.58-9.02 64.58-8.64L64.58-8.64L64.58-8.64Q64.58-8.15 64.94-7.21L64.94-7.21L64.94-7.21Q65.29-6.26 65.72-5.62L65.72-5.62L65.72-5.62Q66.91-4.10 69.23-4.10L69.23-4.10L69.23-4.10Q71.55-4.10 73.17-5.62L73.17-5.62L73.17-5.62Q74.03-6.43 74.57-7.61L74.57-7.61L74.57-7.61Q74.79-8.05 75.14-8.05L75.14-8.05L75.14-8.05Q75.49-8.05 75.71-7.45L75.71-7.45L75.71-7.45Q75.92-6.86 75.92-6.53" fill="#a22e29" stroke="none" stroke-width="none" transform="translate(-91.45001220703125,15.27125144958496)" style="transform:matrix(1, 0, 0, 1, -91.45, 15.2713);fill:rgb(247, 148, 60);animation-play-state:paused" ></path></g>
<g class="path" style="transform-origin:-7.32001px 0.181252px;animation-timing-function:linear;animation-play-state:paused;animation-name:static-ed80747d-f2ef-4f45-befa-f0dbb735fd57;animation-iteration-count:infinite;animation-fill-mode:forwards;animation-duration:1s;animation-delay:-0.33s" ><path d="M78.08-21.06L78.08-21.06L78.25-23.22L78.25-23.22Q78.30-23.71 79.00-23.71L79.00-23.71L80.89-23.71L80.68-28.03L80.68-28.24L80.68-28.24Q80.68-29.48 82.57-30.62L82.57-30.62L82.57-30.62Q84.46-31.75 86.02-31.75L86.02-31.75L86.02-31.75Q86.51-31.75 86.51-31.32L86.51-31.32L86.51-31.27L86.51-31.27Q86.29-29.81 86.08-23.76L86.08-23.76L86.08-23.76Q88.45-23.76 89.10-23.87L89.10-23.87L89.10-23.87Q89.75-23.98 89.80-23.98L89.80-23.98L89.80-23.98Q90.18-23.98 90.18-23.33L90.18-23.33L90.18-23.33Q90.18-22.68 89.59-21.68L89.59-21.68L89.59-21.68Q88.99-20.68 88.29-20.63L88.29-20.63L86.02-20.63L86.02-20.63Q85.97-18.79 85.97-14.45L85.97-14.45L85.97-14.45Q85.97-10.10 86.05-7.29L86.05-7.29L86.05-7.29Q86.13-4.48 86.24-3.05L86.24-3.05L86.24-3.05Q86.35-1.62 86.48-0.76L86.48-0.76L86.48-0.76Q86.62 0.11 86.70 0.49L86.70 0.49L86.70 0.49Q86.78 0.86 86.78 0.97L86.78 0.97L86.78 0.97Q86.78 1.51 86.08 1.57L86.08 1.57L86.08 1.57Q83.97 1.57 81.89 0.97L81.89 0.97L81.89 0.97Q79.81 0.38 79.81-1.08L79.81-1.08L79.81-1.08Q80.95-10.15 80.95-20.57L80.95-20.57L80.95-20.57Q79.49-20.57 78.73-20.47L78.73-20.47L78.68-20.47L78.68-20.47Q78.19-20.47 78.08-21.06" fill="#a22e29" stroke="none" stroke-width="none" transform="translate(-91.45001220703125,15.27125144958496)" style="transform:matrix(1, 0, 0, 1, -91.45, 15.2713);fill:rgb(162, 46, 41);animation-play-state:paused" ></path></g>
<g class="path" style="transform-origin:12.365px -3.43875px;animation-timing-function:linear;animation-play-state:paused;animation-name:static-ed80747d-f2ef-4f45-befa-f0dbb735fd57;animation-iteration-count:infinite;animation-fill-mode:forwards;animation-duration:1s;animation-delay:-0.2475s" ><path d="M98.93-24.30L98.93-24.30L98.98-17.55L98.77-8.21L98.77-8.21Q98.82-7.99 98.93-7.99L98.93-7.99L98.93-7.99Q99.04-7.99 99.09-8.10L99.09-8.10L99.09-8.10Q100.17-9.61 101.76-9.61L101.76-9.61L101.76-9.61Q103.36-9.61 103.36-8.96L103.36-8.96L103.36-8.96Q103.36-6.91 104.14-5.80L104.14-5.80L104.14-5.80Q104.92-4.70 106.35-4.70L106.35-4.70L106.35-4.70Q107.78-4.70 109.11-6.64L109.11-6.64L109.11-6.64Q110.43-8.59 110.43-11.83L110.43-11.83L110.43-11.83Q110.43-12.91 110.00-14.42L110.00-14.42L110.00-14.42Q109.13-17.44 106.76-18.47L106.76-18.47L106.76-18.47Q105.03-19.17 101.14-19.17L101.14-19.17L101.14-19.17Q100.71-19.17 100.71-19.76L100.71-19.76L100.71-19.76Q100.71-22.79 101.79-22.90L101.79-22.90L101.79-22.90Q103.25-22.90 104.87-23.65L104.87-23.65L104.87-23.65Q108.11-25.16 108.11-29.86L108.11-29.86L108.11-29.86Q108.11-34.94 102.28-34.94L102.28-34.94L100.60-34.83L100.60-34.83Q99.63-34.61 99.52-34.02L99.52-34.02L99.52-33.86L99.52-33.86Q98.93-31.70 98.93-24.30zM90.99 0.76L90.99 0.76L91.10 0.16L91.10 0.16Q91.64-0.81 92.02-7.75L92.02-7.75L92.02-7.75Q92.39-14.69 92.39-20.71L92.39-20.71L92.39-20.71Q92.39-26.73 92.15-30.38L92.15-30.38L92.15-30.38Q91.91-34.02 90.83-35.64L90.83-35.64L90.83-35.64Q90.61-35.91 90.61-36.29L90.61-36.29L90.61-36.29Q90.61-36.67 91.26-36.94L91.26-36.94L91.26-36.94Q95.69-38.66 103.30-38.66L103.30-38.66L103.30-38.66Q105.19-38.66 107.41-38.15L107.41-38.15L107.41-38.15Q109.62-37.64 111.05-36.88L111.05-36.88L111.05-36.88Q112.48-36.13 113.64-34.56L113.64-34.56L113.64-34.56Q114.80-32.99 114.97-30.83L114.97-30.83L114.97-30.83Q114.97-23.00 108.49-21.82L108.49-21.82L108.49-21.82Q108.16-21.71 108.16-21.57L108.16-21.57L108.16-21.57Q108.16-21.44 108.43-21.28L108.43-21.28L108.43-21.28Q111.78-20.74 114.05-18.58L114.05-18.58L114.05-18.58Q115.18-17.55 116.10-15.39L116.10-15.39L116.10-15.39Q117.02-13.23 117.02-10.42L117.02-10.42L117.02-10.42Q117.02-6.80 114.91-3.56L114.91-3.56L114.91-3.56Q113.18-0.92 109.89 0.22L109.89 0.22L109.89 0.22Q108.05 0.86 105.79 0.86L105.79 0.86L105.79 0.86Q100.12 0.86 98.60-2.75L98.60-2.75L98.60-2.75Q98.55-2.92 98.44-2.92L98.44-2.92L98.23-2.70L98.23-2.70Q97.09 1.08 91.75 1.24L91.75 1.24L91.75 1.24Q90.99 1.24 90.99 0.76" fill="#a22e29" stroke="none" stroke-width="none" transform="translate(-91.45001220703125,15.27125144958496)" style="transform:matrix(1, 0, 0, 1, -91.45, 15.2713);fill:rgb(242, 74, 60);animation-play-state:paused" ></path></g>
<g class="path" style="transform-origin:37.525px 3.60625px;animation-timing-function:linear;animation-play-state:paused;animation-name:static-ed80747d-f2ef-4f45-befa-f0dbb735fd57;animation-iteration-count:infinite;animation-fill-mode:forwards;animation-duration:1s;animation-delay:-0.165s" ><path d="M124.42-20.36L124.42-20.36L124.42-20.36Q123.01-20.30 122.39-20.28L122.39-20.28L122.39-20.28Q121.77-20.25 121.77-20.57L121.77-20.57L121.77-20.57Q121.77-20.90 122.09-21.22L122.09-21.22L122.09-21.22Q125.55-24.41 133.76-24.41L133.76-24.41L133.76-24.41Q136.57-24.41 138.19-23.92L138.19-23.92L138.73-23.76L138.73-23.76Q139.37-23.49 139.37-23.17L139.37-23.17L139.37-23.17Q139.37-22.90 139.00-22.73L139.00-22.73L139.00-22.73Q137.54-22.30 136.19-21.36L136.19-21.36L136.19-21.36Q134.84-20.41 134.84-20.03L134.84-20.03L135.16-19.66L135.16-19.66Q136.89-18.68 137.84-16.58L137.84-16.58L137.84-16.58Q138.78-14.47 138.89-12.85L138.89-12.85L139.00-11.18L139.00-11.18Q139.00-5.83 136.03-2.38L136.03-2.38L136.03-2.38Q133.06 1.08 127.93 1.08L127.93 1.08L127.93 1.08Q125.33 1.08 123.44 0.16L123.44 0.16L123.44 0.16Q121.55-0.76 120.66-1.92L120.66-1.92L120.66-1.92Q119.77-3.08 119.23-4.54L119.23-4.54L119.23-4.54Q118.58-6.53 118.58-8.67L118.58-8.67L118.58-8.67Q118.58-10.80 119.31-12.96L119.31-12.96L119.31-12.96Q120.04-15.12 120.99-16.15L120.99-16.15L120.99-16.15Q121.93-17.17 123.12-17.82L123.12-17.82L123.12-17.82Q124.63-18.63 125.55-18.63L125.55-18.63L125.55-18.63Q126.47-18.63 126.47-18.25L126.47-18.25L126.14-17.71L126.14-17.71Q124.96-16.31 124.44-14.04L124.44-14.04L124.44-14.04Q123.93-11.77 123.93-10.02L123.93-10.02L123.93-10.02Q123.93-8.26 124.36-6.53L124.36-6.53L124.36-6.53Q124.79-4.81 125.33-3.97L125.33-3.97L125.33-3.97Q125.87-3.13 126.58-2.70L126.58-2.70L126.58-2.70Q127.60-2.05 128.74-2.05L128.74-2.05L128.74-2.05Q129.87-2.05 130.95-2.94L130.95-2.94L130.95-2.94Q132.03-3.83 132.52-5.29L132.52-5.29L132.52-5.29Q133.49-7.99 133.49-10.85L133.49-10.85L133.49-10.85Q133.49-15.39 131.19-17.87L131.19-17.87L131.19-17.87Q128.90-20.36 124.42-20.36" fill="#a22e29" stroke="none" stroke-width="none" transform="translate(-91.45001220703125,15.27125144958496)" style="transform:matrix(1, 0, 0, 1, -91.45, 15.2713);fill:rgb(247, 148, 60);animation-play-state:paused" ></path></g>
<g class="path" style="transform-origin:60.205px 3.60625px;animation-timing-function:linear;animation-play-state:paused;animation-name:static-ed80747d-f2ef-4f45-befa-f0dbb735fd57;animation-iteration-count:infinite;animation-fill-mode:forwards;animation-duration:1s;animation-delay:-0.0825s" ><path d="M147.10-20.36L147.10-20.36L147.10-20.36Q145.69-20.30 145.07-20.28L145.07-20.28L145.07-20.28Q144.45-20.25 144.45-20.57L144.45-20.57L144.45-20.57Q144.45-20.90 144.77-21.22L144.77-21.22L144.77-21.22Q148.23-24.41 156.44-24.41L156.44-24.41L156.44-24.41Q159.25-24.41 160.87-23.92L160.87-23.92L161.41-23.76L161.41-23.76Q162.05-23.49 162.05-23.17L162.05-23.17L162.05-23.17Q162.05-22.90 161.68-22.73L161.68-22.73L161.68-22.73Q160.22-22.30 158.87-21.36L158.87-21.36L158.87-21.36Q157.52-20.41 157.52-20.03L157.52-20.03L157.84-19.66L157.84-19.66Q159.57-18.68 160.51-16.58L160.51-16.58L160.51-16.58Q161.46-14.47 161.57-12.85L161.57-12.85L161.68-11.18L161.68-11.18Q161.68-5.83 158.71-2.38L158.71-2.38L158.71-2.38Q155.74 1.08 150.61 1.08L150.61 1.08L150.61 1.08Q148.01 1.08 146.12 0.16L146.12 0.16L146.12 0.16Q144.23-0.76 143.34-1.92L143.34-1.92L143.34-1.92Q142.45-3.08 141.91-4.54L141.91-4.54L141.91-4.54Q141.26-6.53 141.26-8.67L141.26-8.67L141.26-8.67Q141.26-10.80 141.99-12.96L141.99-12.96L141.99-12.96Q142.72-15.12 143.67-16.15L143.67-16.15L143.67-16.15Q144.61-17.17 145.80-17.82L145.80-17.82L145.80-17.82Q147.31-18.63 148.23-18.63L148.23-18.63L148.23-18.63Q149.15-18.63 149.15-18.25L149.15-18.25L148.82-17.71L148.82-17.71Q147.64-16.31 147.12-14.04L147.12-14.04L147.12-14.04Q146.61-11.77 146.61-10.02L146.61-10.02L146.61-10.02Q146.61-8.26 147.04-6.53L147.04-6.53L147.04-6.53Q147.47-4.81 148.01-3.97L148.01-3.97L148.01-3.97Q148.55-3.13 149.26-2.70L149.26-2.70L149.26-2.70Q150.28-2.05 151.42-2.05L151.42-2.05L151.42-2.05Q152.55-2.05 153.63-2.94L153.63-2.94L153.63-2.94Q154.71-3.83 155.20-5.29L155.20-5.29L155.20-5.29Q156.17-7.99 156.17-10.85L156.17-10.85L156.17-10.85Q156.17-15.39 153.87-17.87L153.87-17.87L153.87-17.87Q151.58-20.36 147.10-20.36" fill="#a22e29" stroke="none" stroke-width="none" transform="translate(-91.45001220703125,15.27125144958496)" style="transform:matrix(1, 0, 0, 1, -91.45, 15.2713);fill:rgb(162, 46, 41);animation-play-state:paused" ></path></g>
<g class="path" style="transform-origin:81.97px -3.00875px;animation-timing-function:linear;animation-play-state:paused;animation-name:static-ed80747d-f2ef-4f45-befa-f0dbb735fd57;animation-iteration-count:infinite;animation-fill-mode:forwards;animation-duration:1s" ><path d="M175.61-17.50L175.61-17.50L175.61-17.50Q175.39-17.28 175.39-17.04L175.39-17.04L175.39-17.04Q175.39-16.79 176.39-16.58L176.39-16.58L176.39-16.58Q177.39-16.36 178.58-15.39L178.58-15.39L178.58-15.39Q179.77-14.42 180.36-13.28L180.36-13.28L180.36-13.28Q181.49-11.07 181.60-9.40L181.60-9.40L181.66-8.69L181.66-8.69Q181.93-2.38 183.98-0.05L183.98-0.05L183.98-0.05Q184.25 0.32 184.25 0.49L184.25 0.49L184.25 0.49Q184.25 1.08 182.74 1.08L182.74 1.08L182.74 1.08Q178.20 1.08 176.96-0.81L176.96-0.81L176.96-0.81Q176.31-1.57 176.31-5.51L176.31-5.51L176.31-6.86L176.31-6.86Q176.31-11.88 175.07-13.82L175.07-13.82L175.07-13.82Q174.42-14.74 173.48-14.74L173.48-14.74L173.48-14.74Q172.53-14.74 171.50-13.10L171.50-13.10L171.50-13.10Q170.48-11.45 170.48-10.31L170.48-10.31L170.48-10.31Q170.48-5.78 170.69-4.00L170.69-4.00L170.69-4.00Q170.91-2.21 170.91-2.16L170.91-2.16L170.91-2.16Q170.91-0.59 168.78 0.27L168.78 0.27L168.78 0.27Q166.64 1.13 164.75 1.13L164.75 1.13L164.75 1.13Q164.05 1.13 164.05 0.27L164.05 0.27L164.05 0.05L164.05 0.05Q165.35-6.59 165.35-20.90L165.35-20.90L165.35-20.90Q165.35-25.60 165.13-28.84L165.13-28.84L165.02-29.92L165.02-29.92Q164.92-31.43 164.40-32.51L164.40-32.51L164.40-32.51Q163.89-33.59 163.40-33.91L163.40-33.91L162.97-34.18L162.97-34.18Q162.59-34.40 162.59-34.67L162.59-34.67L162.59-34.67Q162.59-35.53 165.19-36.61L165.19-36.61L165.19-36.61Q167.78-37.69 169.67-37.69L169.67-37.69L169.67-37.69Q170.53-37.64 170.59-37.04L170.59-37.04L170.59-37.04Q170.86-34.88 170.86-28.16L170.86-28.16L170.86-28.16Q170.86-21.44 170.53-17.44L170.53-17.44L170.53-17.44Q170.53-16.79 170.75-16.79L170.75-16.79L170.75-16.79Q170.96-16.79 171.42-17.41L171.42-17.41L171.42-17.41Q171.88-18.04 173.04-19.39L173.04-19.39L173.04-19.39Q174.20-20.74 176.18-22.52L176.18-22.52L176.18-22.52Q178.15-24.30 179.36-24.30L179.36-24.30L179.36-24.30Q180.58-24.30 181.76-23.71L181.76-23.71L181.76-23.71Q182.95-23.11 182.95-22.57L182.95-22.57L182.36-22.19L182.36-22.19Q179.28-21.06 175.61-17.50" fill="#a22e29" stroke="none" stroke-width="none" transform="translate(-91.45001220703125,15.27125144958496)" style="transform:matrix(1, 0, 0, 1, -91.45, 15.2713);fill:rgb(242, 74, 60);animation-play-state:paused" ></path></g></g></g></g></svg>