<svg width="42" height="42" viewBox="0 0 42 42" fill="none" xmlns="http://www.w3.org/2000/svg">
<path d="M0.321289 8.42338C0.412186 7.9852 0.488112 7.54247 0.598258 7.10996C1.04499 5.32616 2.00103 3.73293 3.33506 2.54913C4.66909 1.36532 6.31567 0.649 8.04863 0.498557C8.40687 0.465636 8.76939 0.442932 9.12656 0.442932C17.0093 0.442932 24.8921 0.442932 32.7748 0.442932C36.7957 0.442932 40.1375 3.24347 41.0903 7.39149C42.2057 12.2479 39.1654 17.2779 34.5447 18.2077C34.0093 18.3175 33.4655 18.3748 32.9203 18.3791C29.772 18.395 26.6248 18.387 23.4766 18.387C23.4103 18.387 23.344 18.3802 23.2114 18.3734V17.9284C23.2114 15.7568 23.2221 13.5863 23.2114 11.4158C23.1953 8.71627 21.5463 6.489 19.1017 5.83513C16.054 5.02006 12.9582 7.27229 12.5582 10.603C12.5168 10.9418 12.4954 11.283 12.494 11.6246C12.4876 13.71 12.494 15.7954 12.494 17.8819V18.3972H11.8824C10.7616 18.3972 9.63666 18.4052 8.52129 18.3893C4.80092 18.3371 1.43986 15.4696 0.572593 11.6167C0.480627 11.2273 0.402562 10.8482 0.321289 10.4667V8.42338ZM29.5977 10.6132C29.063 10.0308 28.57 9.47798 28.0546 8.94103C27.944 8.82255 27.8124 8.7285 27.6674 8.66432C27.5224 8.60013 27.3669 8.56709 27.2098 8.56709C27.0527 8.56709 26.8971 8.60013 26.7521 8.66432C26.6071 8.7285 26.4755 8.82255 26.365 8.94103C25.8944 9.44506 25.8902 10.1966 26.3821 10.7324C27.1663 11.5838 27.9583 12.4261 28.7582 13.2593C29.2534 13.7747 29.9538 13.7951 30.4457 13.2786C32.0583 11.5849 33.6624 9.88211 35.2579 8.17023C35.4688 7.94765 35.5932 7.64918 35.6067 7.33387C35.6201 7.01855 35.5216 6.70935 35.3307 6.46744C34.8901 5.89416 34.0645 5.87146 33.5287 6.43905C32.2305 7.80243 30.944 9.18397 29.5977 10.6132Z" fill="url(#paint0_linear_3_22033)"/>
<path d="M20.8127 21.1172C22.111 21.2602 23.3686 21.3953 24.6261 21.5406C26.0281 21.7018 27.4397 21.8074 28.8299 22.0526C30.497 22.3477 31.6915 23.9381 31.6958 25.7329C31.7044 28.7116 31.6958 31.6904 31.6958 34.6692C31.6958 34.7827 31.6851 34.8905 31.6776 35.0347C31.5354 35.0415 31.406 35.054 31.2766 35.054C25.7158 35.054 20.1551 35.0506 14.5943 35.0438C14.3608 35.0363 14.1358 34.9491 13.9527 34.7952C12.0845 33.1548 10.2248 31.4974 8.36088 29.8446C7.4487 29.0363 7.07763 27.9976 7.33 26.7795C7.58238 25.5615 8.31704 24.7839 9.45486 24.4921C10.4087 24.2469 11.2728 24.5012 12.0214 25.1732C12.8469 25.9145 13.6778 26.649 14.5066 27.3835C14.6071 27.472 14.713 27.5526 14.883 27.6922V27.178C14.883 21.9016 14.883 16.6252 14.883 11.3488C14.883 9.87301 15.7749 8.68446 17.1159 8.30643C18.9338 7.79559 20.7903 9.2793 20.7999 11.2784C20.8149 14.3843 20.8053 17.4902 20.8053 20.5972L20.8127 21.1172Z" fill="url(#paint1_linear_3_22033)"/>
<path d="M31.6958 37.598C31.6958 38.5062 31.714 39.3882 31.6894 40.2658C31.6733 40.839 31.2434 41.2874 30.6692 41.4009C30.525 41.4265 30.379 41.4379 30.2329 41.435C25.6046 41.435 20.977 41.435 16.3502 41.435C15.8765 41.435 15.4348 41.3465 15.1461 40.9117C15.0098 40.7216 14.9254 40.4954 14.9023 40.2578C14.8745 39.3803 14.8916 38.5017 14.8916 37.5901L31.6958 37.598Z" fill="url(#paint2_linear_3_22033)"/>
<defs>
<linearGradient id="paint0_linear_3_22033" x1="20.8214" y1="18.3995" x2="20.8214" y2="0.442932" gradientUnits="userSpaceOnUse">
<stop stop-color="#FEAA42"/>
<stop offset="0.01" stop-color="#FBA33F"/>
<stop offset="0.03" stop-color="#F59838"/>
<stop offset="0.06" stop-color="#F29135"/>
<stop offset="0.15" stop-color="#F18F34"/>
<stop offset="0.23" stop-color="#F28F3E"/>
<stop offset="0.37" stop-color="#F38E5A"/>
<stop offset="0.55" stop-color="#F68D88"/>
<stop offset="0.62" stop-color="#F78C9B"/>
<stop offset="1" stop-color="#F08672"/>
</linearGradient>
<linearGradient id="paint1_linear_3_22033" x1="19.4761" y1="35.0544" x2="19.4761" y2="8.20496" gradientUnits="userSpaceOnUse">
<stop stop-color="#FEAA42"/>
<stop offset="0.01" stop-color="#FBA33F"/>
<stop offset="0.03" stop-color="#F59838"/>
<stop offset="0.06" stop-color="#F29135"/>
<stop offset="0.15" stop-color="#F18F34"/>
<stop offset="0.23" stop-color="#F28F3E"/>
<stop offset="0.37" stop-color="#F38E5A"/>
<stop offset="0.55" stop-color="#F68D88"/>
<stop offset="0.62" stop-color="#F78C9B"/>
<stop offset="1" stop-color="#F08672"/>
</linearGradient>
<linearGradient id="paint2_linear_3_22033" x1="23.2943" y1="41.4355" x2="23.2943" y2="37.5901" gradientUnits="userSpaceOnUse">
<stop stop-color="#FEAA42"/>
<stop offset="0.01" stop-color="#FBA33F"/>
<stop offset="0.03" stop-color="#F59838"/>
<stop offset="0.06" stop-color="#F29135"/>
<stop offset="0.15" stop-color="#F18F34"/>
<stop offset="0.23" stop-color="#F28F3E"/>
<stop offset="0.37" stop-color="#F38E5A"/>
<stop offset="0.55" stop-color="#F68D88"/>
<stop offset="0.62" stop-color="#F78C9B"/>
<stop offset="1" stop-color="#F08672"/>
</linearGradient>
</defs>
</svg>
