<?xml version="1.0" encoding="utf-8"?><svg xml:space="preserve" viewBox="0 0 100 100" y="0" x="0" xmlns="http://www.w3.org/2000/svg" id="圖層_1" version="1.1" width="200px" height="200px" xmlns:xlink="http://www.w3.org/1999/xlink" style="width:100%;height:100%;background-size:initial;background-repeat-y:initial;background-repeat-x:initial;background-position-y:initial;background-position-x:initial;background-origin:initial;background-color:initial;background-clip:initial;background-attachment:initial;animation-play-state:paused" ><g class="ldl-scale" style="transform-origin:50% 50%;transform:rotate(0deg) scale(1, 1);animation-play-state:paused" ><path fill="#333" d="M84.158 52.782a.832.832 0 0 0-.498-.607l-33.727-14.14a.833.833 0 0 0-.925.188L17.141 70.856a.832.832 0 0 0-.222.754.832.832 0 0 0 .498.607l5.534 2.32 2.931 1.229 25.262 10.591c.319.135.683.06.926-.188l23.125-23.683 2.22-2.274 6.521-6.678a.831.831 0 0 0 .222-.752z" style="fill:rgb(51, 51, 51);animation-play-state:paused" ></path>
<path fill="#333" d="M84.533 39.027a.832.832 0 0 0-.498-.607L50.308 24.28a.833.833 0 0 0-.925.188L17.517 57.102a.832.832 0 0 0-.222.754.832.832 0 0 0 .498.607l5.534 2.32 2.931 1.229 25.262 10.59c.319.135.683.06.926-.188L75.57 48.732l2.22-2.274 6.521-6.678a.83.83 0 0 0 .222-.753z" style="fill:rgb(51, 51, 51);animation-play-state:paused" ></path>
<path fill="#e0e0e0" d="M78.501 49.96L54.56 74.479a3.776 3.776 0 0 1-4.182.849l-26.34-11.043-2.931-1.229-2.075-.87-1.505-.631c-.46-.193-.94-.597-1.383-.148-.197.199-.293.475-.363.747-.245.954-.195 1.997-.157 2.975.04 1.044.19 2.082.436 3.097.147.61.327 1.211.535 1.803.201.568.413 1.16.735 1.673.188.3.449.64.787.765.076.028.152.057.228.089l.462.194 1.291.541 1.723.722 2.083.873 2.372.995 2.591 1.086 2.739 1.148 2.815 1.18 2.821 1.183 2.756 1.156 2.621 1.099 2.414 1.012 2.136.896 1.788.749 1.368.574.878.368.317.133c.318.134.683.06.925-.188l29.568-30.28v-9.63l-1.292 1.323-2.22 2.27z" style="fill:rgb(224, 224, 224);animation-play-state:paused" ></path>
<path d="M86.426 41.845a3.793 3.793 0 0 0-1.247-6.151l-33.727-14.14a3.778 3.778 0 0 0-4.182.848l-.474.485-2.202 2.255-3.587 3.673-4.515 4.624-4.987 5.107-5.002 5.122-4.561 4.67-3.663 3.751c-1.039 1.064-2.078 2.015-2.914 3.27-.575.864-.929 1.76-1.287 2.731a19.786 19.786 0 0 0-.7 2.301 18.665 18.665 0 0 0-.467 3.038 18.58 18.58 0 0 0 .61 6.093c.424 1.578.966 3.194 2.015 4.476.499.61 1.03 1.068 1.765 1.323.2.069.395.166.591.248l3.892 1.632 5.654 2.371 6.506 2.728 6.447 2.703 5.476 2.296 3.595 1.507.914.383a3.778 3.778 0 0 0 4.182-.849l31.866-32.634a3.791 3.791 0 0 0 1.004-3.406 3.79 3.79 0 0 0-2.252-2.745l-.21-.088v-6.13l1.46-1.492zm-4.413 6.383v7.766l-29.568 30.28a.834.834 0 0 1-.925.188l-.317-.133-.878-.368-1.368-.574-1.788-.749-2.136-.896-2.414-1.012-2.621-1.099-2.756-1.156-2.821-1.183-2.815-1.18-2.739-1.148-2.591-1.086-2.372-.995-2.083-.873-1.723-.722-1.291-.541-.462-.194c-.076-.032-.151-.06-.228-.089-.338-.125-.599-.465-.787-.765-.321-.513-.534-1.105-.735-1.673a18.195 18.195 0 0 1-.535-1.803 15.862 15.862 0 0 1-.436-3.097c-.038-.978-.088-2.021.157-2.975.07-.271.166-.547.363-.747.443-.449.923-.045 1.383.148l1.505.631 2.075.87 2.931 1.229 26.34 11.043a3.774 3.774 0 0 0 4.182-.849L78.501 49.96l2.22-2.274 1.292-1.323v1.865zm2.298-8.448l-6.521 6.678-2.22 2.274-23.125 23.682a.837.837 0 0 1-.926.188L26.258 62.011l-2.931-1.229-5.534-2.32a.834.834 0 0 1-.498-.607.88.88 0 0 1 .047-.477l.047-.097a.815.815 0 0 1 .128-.179l31.866-32.634a.833.833 0 0 1 .925-.188l33.727 14.14a.834.834 0 0 1 .498.607.83.83 0 0 1-.222.753z" style="animation-play-state:paused" ></path>
<path fill="#333" d="M84.158 25.271a.832.832 0 0 0-.498-.607l-33.727-14.14a.833.833 0 0 0-.925.188L17.141 43.345a.832.832 0 0 0-.222.754.832.832 0 0 0 .498.607l5.534 2.32 2.931 1.229 25.262 10.591c.319.135.683.06.926-.188l23.125-23.683 2.22-2.274 6.521-6.678a.831.831 0 0 0 .222-.752z" style="fill:rgb(51, 51, 51);animation-play-state:paused" ></path>
<path fill="#e0e0e0" d="M78.126 36.204L54.184 60.723a3.776 3.776 0 0 1-4.182.849l-26.34-11.043-2.931-1.229-2.075-.87-1.505-.631c-.46-.193-.94-.597-1.383-.148-.197.199-.293.475-.363.747-.245.954-.195 1.997-.157 2.975.04 1.044.19 2.082.436 3.097.147.61.327 1.211.535 1.803.201.568.413 1.16.735 1.673.188.3.449.64.787.765.076.028.152.057.228.089l.462.194 1.291.541 1.723.722 2.083.873 2.372.995 2.591 1.086 2.739 1.148 2.815 1.18 2.821 1.183 2.756 1.156 2.621 1.099 2.414 1.012 2.136.896 1.788.749 1.368.574.878.368.317.133c.318.134.683.06.925-.188l29.568-30.28v-9.63l-1.292 1.323-2.219 2.27z" style="fill:rgb(224, 224, 224);animation-play-state:paused" ></path>
<path d="M86.05 28.089a3.793 3.793 0 0 0-1.247-6.151L51.075 7.798a3.778 3.778 0 0 0-4.182.848l-.474.485-2.202 2.255-3.587 3.673-4.515 4.624-4.987 5.107-5.002 5.122-4.561 4.67-3.663 3.751c-1.039 1.064-2.078 2.015-2.914 3.27-.575.864-.929 1.76-1.287 2.731a19.786 19.786 0 0 0-.7 2.301 18.665 18.665 0 0 0-.467 3.038 18.58 18.58 0 0 0 .61 6.093c.424 1.578.966 3.194 2.015 4.476.499.61 1.03 1.068 1.765 1.323.2.069.395.166.591.248l3.892 1.632 5.654 2.371 6.506 2.728 6.447 2.703 5.476 2.296 3.595 1.507.914.383a3.778 3.778 0 0 0 4.182-.849L86.05 41.95a3.791 3.791 0 0 0 1.004-3.406 3.79 3.79 0 0 0-2.252-2.745l-.21-.088v-6.13l1.458-1.492zm-4.413 6.383v7.766l-29.568 30.28a.834.834 0 0 1-.925.188l-.317-.133-.878-.368-1.368-.574-1.788-.749-2.136-.896-2.414-1.012-2.621-1.099-2.756-1.156-2.821-1.183-2.815-1.18-2.739-1.148-2.591-1.086-2.372-.995-2.083-.873-1.723-.722-1.291-.541-.462-.194c-.076-.032-.151-.06-.228-.089-.338-.125-.599-.465-.787-.765-.321-.513-.534-1.105-.735-1.673a18.195 18.195 0 0 1-.535-1.803 15.862 15.862 0 0 1-.436-3.097c-.038-.978-.088-2.021.157-2.975.07-.271.166-.547.363-.747.443-.449.923-.045 1.383.148l1.505.631 2.075.87 2.931 1.229 26.34 11.043a3.774 3.774 0 0 0 4.182-.849l23.942-24.519 2.22-2.274 1.292-1.323v1.868zm2.298-8.448l-6.521 6.678-2.22 2.274-23.125 23.682a.837.837 0 0 1-.926.188L25.882 48.255l-2.931-1.229-5.534-2.32a.834.834 0 0 1-.498-.607.88.88 0 0 1 .047-.477l.047-.097a.815.815 0 0 1 .128-.179l31.866-32.634a.833.833 0 0 1 .925-.188l33.727 14.14a.834.834 0 0 1 .498.607.828.828 0 0 1-.222.753z" style="animation-play-state:paused" ></path>
<path d="M25.691 67.285l-.711.832-1.319 1.349V83.534l6.223-3.754 6.031 9.78V74.893l2.3-2.457z" fill="#f47e60" style="fill:rgb(244, 126, 96);animation-play-state:paused" ></path>
<path d="M35.903 58.961l-2.4 2.521-1.319 1.35V86.473l6.223-3.753 6.031 9.78V68.258l3.989-4.146z" fill="#c33737" style="fill:rgb(195, 55, 55);animation-play-state:paused" ></path>
<metadata xmlns:d="https://loading.io/stock/" style="animation-play-state:paused" ><d:name style="animation-play-state:paused" >tag</d:name>
<d:tags style="animation-play-state:paused" >label,flag,bookmark,favorite,collection,mark,tag,books</d:tags>
<d:license style="animation-play-state:paused" >by</d:license>
<d:slug style="animation-play-state:paused" >ah1tyb</d:slug></metadata></g><!-- generated by https://loading.io/ --></svg>